<svg width="28" height="27" viewBox="0 0 28 27" fill="none" xmlns="http://www.w3.org/2000/svg">
<g filter="url(#filter0_d_5293_166)">
<rect x="2" width="24" height="24" rx="12" fill="#00703A"/>
<path fill-rule="evenodd" clip-rule="evenodd" d="M17.4728 5.64792C17.6991 5.79873 17.7602 6.10437 17.6094 6.33058L14.8667 10.4446C14.7159 10.6708 14.4102 10.7319 14.184 10.5811C13.9578 10.4303 13.8967 10.1247 14.0475 9.89847L16.7902 5.78445C16.941 5.55823 17.2466 5.49711 17.4728 5.64792ZM19.402 7.5656C19.5789 7.77202 19.555 8.0828 19.3486 8.25973L16.1488 11.0024C15.9424 11.1794 15.6316 11.1554 15.4547 10.949C15.2777 10.7426 15.3016 10.4318 15.5081 10.2549L18.7079 7.51221C18.9143 7.33527 19.2251 7.35918 19.402 7.5656ZM7.56519 12C7.56519 11.7281 7.78559 11.5077 8.05746 11.5077H19.9425C20.2143 11.5077 20.4348 11.7281 20.4348 12C20.4348 13.7066 19.7568 15.3433 18.5501 16.5501C17.3433 17.7568 15.7066 18.4348 14 18.4348C13.155 18.4348 12.3182 18.2683 11.5375 17.9449C10.7567 17.6216 10.0474 17.1476 9.44989 16.5501C8.24314 15.3433 7.56519 13.7066 7.56519 12ZM8.572 12.4923C8.68668 13.7572 9.24064 14.9484 10.1461 15.8539C10.6522 16.36 11.253 16.7615 11.9142 17.0353C12.5755 17.3092 13.2842 17.4502 14 17.4502C15.4455 17.4502 16.8317 16.876 17.8539 15.8539C18.7593 14.9484 19.3133 13.7572 19.4279 12.4923H8.572Z" fill="white"/>
</g>
<defs>
<filter id="filter0_d_5293_166" x="0.608696" y="0" width="26.7826" height="26.7826" filterUnits="userSpaceOnUse" color-interpolation-filters="sRGB">
<feFlood flood-opacity="0" result="BackgroundImageFix"/>
<feColorMatrix in="SourceAlpha" type="matrix" values="0 0 0 0 0 0 0 0 0 0 0 0 0 0 0 0 0 0 127 0" result="hardAlpha"/>
<feOffset dy="1.3913"/>
<feGaussianBlur stdDeviation="0.695652"/>
<feComposite in2="hardAlpha" operator="out"/>
<feColorMatrix type="matrix" values="0 0 0 0 0 0 0 0 0 0 0 0 0 0 0 0 0 0 0.25 0"/>
<feBlend mode="normal" in2="BackgroundImageFix" result="effect1_dropShadow_5293_166"/>
<feBlend mode="normal" in="SourceGraphic" in2="effect1_dropShadow_5293_166" result="shape"/>
</filter>
</defs>
</svg>
